<svg xmlns="http://www.w3.org/2000/svg" width="1080" height="1080" viewBox="0 0 1080 1080" role="img" aria-label="Fallback poster Mastering Basic AnyGen AI">
  <defs>
    <linearGradient id="bg" x1="0" x2="0" y1="0" y2="1">
      <stop offset="0" stop-color="#27006f"/>
      <stop offset="0.34" stop-color="#3b1590"/>
      <stop offset="0.68" stop-color="#ececf1"/>
      <stop offset="1" stop-color="#310088"/>
    </linearGradient>
    <linearGradient id="panel" x1="0" x2="1" y1="0" y2="1">
      <stop offset="0" stop-color="#6d2cff"/>
      <stop offset="1" stop-color="#25036c"/>
    </linearGradient>
    <filter id="shadow" x="-20%" y="-20%" width="140%" height="140%">
      <feDropShadow dx="0" dy="18" stdDeviation="18" flood-color="#000" flood-opacity=".35"/>
    </filter>
    <filter id="whiteGlow" x="-20%" y="-20%" width="140%" height="140%">
      <feDropShadow dx="0" dy="0" stdDeviation="8" flood-color="#fff" flood-opacity=".9"/>
    </filter>
  </defs>
  <rect width="1080" height="1080" fill="url(#bg)"/>
  <g opacity=".18">
    <rect x="-35" y="176" width="145" height="180" rx="18" fill="#fff"/>
    <rect x="110" y="176" width="280" height="180" rx="18" fill="#fff"/>
    <rect x="430" y="176" width="260" height="180" rx="18" fill="#fff"/>
    <rect x="700" y="176" width="270" height="180" rx="18" fill="#fff"/>
    <rect x="990" y="176" width="150" height="180" rx="18" fill="#fff"/>
    <rect x="-40" y="426" width="120" height="162" rx="14" fill="#fff"/>
    <rect x="120" y="426" width="265" height="162" rx="14" fill="#fff"/>
    <rect x="406" y="426" width="268" height="162" rx="14" fill="#fff"/>
    <rect x="698" y="426" width="268" height="162" rx="14" fill="#fff"/>
    <rect x="986" y="426" width="130" height="162" rx="14" fill="#fff"/>
  </g>
  <text x="110" y="128" font-family="Arial Black, Impact, sans-serif" font-size="28" fill="#fff">THE ART OF</text>
  <text x="110" y="166" font-family="Arial Black, Impact, sans-serif" font-size="46" fill="#fff">PROMPTING</text>
  <text x="540" y="164" text-anchor="middle" font-family="Anton, Impact, sans-serif" font-size="76" fill="#fff" font-style="italic">MASTERING BASIC</text>
  <text x="540" y="338" text-anchor="middle" font-family="Anton, Impact, sans-serif" font-size="190" fill="#fff" font-style="italic" filter="url(#shadow)">ANYGEN AI</text>
  <g filter="url(#whiteGlow)">
    <path d="M530 316c-95 0-160 80-160 178v120c0 190-95 250-95 250h510s-95-60-95-250V494c0-98-65-178-160-178z" fill="#1d1d1d"/>
    <circle cx="530" cy="468" r="118" fill="#d6ad8f"/>
    <path d="M413 430c50-104 184-104 233 0-29-26-76-42-116-42s-88 16-117 42z" fill="#151515"/>
    <path d="M353 690c45-72 111-108 177-108s132 36 177 108v206H353z" fill="#161616"/>
    <path d="M469 608l61 58 61-58 18 92-79 112-79-112z" fill="#f3f0ed"/>
    <path d="M500 662l30 34 30-34 20 150h-100z" fill="#5d453c"/>
    <circle cx="486" cy="478" r="10" fill="#1d1d1d"/>
    <circle cx="574" cy="478" r="10" fill="#1d1d1d"/>
    <path d="M486 535c31 22 61 22 92 0" fill="none" stroke="#8d5542" stroke-width="9" stroke-linecap="round"/>
  </g>
  <text x="820" y="365" font-family="Georgia, serif" font-size="30" fill="#fff" font-style="italic">bersama</text>
  <text x="830" y="405" font-family="Arial Black, Arial, sans-serif" font-size="48" fill="#fff">Cikgu KB</text>
  <text x="825" y="432" font-family="Arial, sans-serif" font-size="18" fill="#fff">Trainer / TAOP Expert</text>
  <g transform="translate(80 528)" filter="url(#shadow)">
    <rect width="205" height="260" rx="20" fill="url(#panel)" stroke="#fff" stroke-width="5"/>
    <circle cx="103" cy="42" r="70" fill="#fff"/>
    <text x="103" y="70" text-anchor="middle" font-family="Arial Black, Arial, sans-serif" font-size="86" fill="#4f16bc">$</text>
    <text x="16" y="124" font-family="Arial, sans-serif" font-size="20" fill="#fff">Harga Asal</text>
    <text x="16" y="176" font-family="Arial Black, Arial, sans-serif" font-size="58" fill="#fff" text-decoration="line-through">RM37</text>
    <text x="16" y="202" font-family="Arial, sans-serif" font-size="20" fill="#fff">Kini Hanya</text>
    <text x="16" y="246" font-family="Arial Black, Arial, sans-serif" font-size="58" fill="#fff">RM30</text>
  </g>
  <g transform="translate(810 526)" filter="url(#shadow)">
    <rect width="200" height="260" rx="20" fill="url(#panel)" stroke="#fff" stroke-width="5"/>
    <rect x="34" y="28" width="132" height="90" rx="14" fill="none" stroke="#fff" stroke-width="11"/>
    <path d="M62 25v-26M138 25v-26" stroke="#fff" stroke-width="14" stroke-linecap="round"/>
    <g fill="#fff">
      <rect x="60" y="56" width="18" height="18"/><rect x="92" y="56" width="18" height="18"/><rect x="124" y="56" width="18" height="18"/>
      <rect x="60" y="88" width="18" height="18"/><rect x="92" y="88" width="18" height="18"/><rect x="124" y="88" width="18" height="18"/>
    </g>
    <text x="100" y="150" text-anchor="middle" font-family="Arial, sans-serif" font-size="34" fill="#fff">Sabtu</text>
    <text x="100" y="195" text-anchor="middle" font-family="Arial Black, Arial, sans-serif" font-size="44" fill="#fff">23 Mei</text>
    <text x="100" y="238" text-anchor="middle" font-family="Arial Black, Arial, sans-serif" font-size="44" fill="#fff">2026</text>
  </g>
  <g transform="translate(80 818)" filter="url(#shadow)">
    <rect width="930" height="138" rx="13" fill="url(#panel)" stroke="#fff" stroke-width="4"/>
    <circle cx="30" cy="20" r="28" fill="#fff"/>
    <text x="76" y="36" font-family="Arial, sans-serif" font-size="17" fill="#fff" font-weight="700">Pelajari cara menggunakan AnyGen AI untuk membantu tugasan harian seperti menghasilkan content, presentation, idea kreatif dan kerja pejabat dengan lebih cepat dan mudah.</text>
    <text x="548" y="70" font-family="Arial, sans-serif" font-size="17" fill="#fff" font-weight="700">Sesi ini sesuai untuk guru, trainer, usahawan, staff pejabat, pelajar IPT dan individu yang ingin belajar menggunakan AI.</text>
  </g>
  <rect y="984" width="1080" height="96" fill="#3a0b9a"/>
  <text x="108" y="1024" font-family="Arial, sans-serif" font-size="28" fill="#fff">Kelas Online</text>
  <text x="108" y="1055" font-family="Arial Black, Arial, sans-serif" font-size="28" fill="#fff">9.00 - 11.00 malam</text>
  <text x="390" y="1050" font-family="Arial Black, Arial, sans-serif" font-size="30" fill="#fff">PERCUMA : Rakaman 7 Hari</text>
  <text x="790" y="1050" font-family="Arial Black, Arial, sans-serif" font-size="34" fill="#fff">GIGVENTURE</text>
</svg>
